<svg id="Layer_1" data-name="Layer 1" xmlns="http://www.w3.org/2000/svg" viewBox="0 0 67 25.5"><defs><style>.cls-1{fill:#fff;fill-rule:evenodd;}</style></defs><path class="cls-1" d="M48.38,11.24v3.38a2.65,2.65,0,0,0-2.05-1.82,3,3,0,0,0,2.05-1.56Zm-7.81,3v2.12l1.75,0a1.08,1.08,0,1,0,0-2.15Zm0-5v2.1l1.67,0a1,1,0,0,0,1.14-1,1,1,0,0,0-1.14-1.07ZM31,10.35h4.64v1.38H29.35v2.48h1.6v1.38c0,.72-.41,1.2-1.55,1.2a1.43,1.43,0,0,1-1.55-1.28l0-5.22A1.4,1.4,0,0,1,29.45,9C30.64,9,31,9.61,31,10.35ZM10.6.78h4.64l.49,2.31L18.12.74h4.26l.56,2.38L25.29.74H29.7l-.48,2A8.61,8.61,0,0,1,35.63.25c3.09,0,4.51.95,5.73,2.22L43.1.76H50a2.4,2.4,0,0,1,2.61,2.51L55.19.76H60v2.4L62.34.78H67V13.7L55.71,24.89H50.46V22.47L48,24.89H42.75V22.67a4.7,4.7,0,0,1-4.51,2.22h-8V23.36a12.68,12.68,0,0,1-6.94,1.89c-3.6,0-5.57-1.13-6.54-2.63l-2.4,2.27H10l-.59-2.27-2.33,2.3H2.66L0,11.32,10.6.78ZM5.08,6.46l2.49,12.6h5.15l1.39-4.83,1.44,4.83H20.6l1-5.06c.89,5.34,6.23,5.55,7.78,5.55a12.77,12.77,0,0,0,6.23-1.69v1.2h8.89c2.53,0,3.29-.81,3.85-2v2h5.35V14.62h2.53v4.44h5.22V6.48H56.26V11H53.76V6.48H48.38V8.82c-.51-1.51-1.5-2.34-4.05-2.34H35.66V8.33c-.74-.87-2.56-2.25-6.49-2.25s-5.32,1-6.76,3l.47-2.62H18.68l-1.13,4.59L16.48,6.49H11.92l-1.16,4.65-1-4.68Z"/></svg>